@startuml
class ApplicationDbContext {
    + ApplicationDbContext(options:DbContextOptions<ApplicationDbContext>)
}
class "IdentityDbContext`1"<T> {
}
class "DbSet`1"<T> {
}
"IdentityDbContext`1" "<User>" <|-- ApplicationDbContext
ApplicationDbContext --> "Profiles<Profile>" "DbSet`1"
ApplicationDbContext --> "Likes<Like>" "DbSet`1"
@enduml
